# xmcd
#
# Track frame offsets: 
#        150
#        15070
#        34192
#
# Disc length: 680 seconds
#
# Revision: 2
# Processed by: cddbd v1.5.2PL0 Copyright (c) Steve Scherf et al.
# Submitted via: ExactAudioCopy v1.0b1
#
DISCID=1202a603
DTITLE=Pandora - Come On And Do It-CDM-1993
DYEAR=1993
DGENRE=Eurodance
TTITLE0=Come On And Do It (Radio Edit)
TTITLE1=Come On And Do It (The Funky Ride Version II)
TTITLE2=Get Your Chance
EXTD=
EXTT0=
EXTT1=
EXTT2=
PLAYORDER=
